<?xml version="1.0" encoding="UTF-8"?>
<svg width="190px" height="212px" viewBox="0 0 190 212" version="1.1" xmlns="http://www.w3.org/2000/svg" xmlns:xlink="http://www.w3.org/1999/xlink">
    <!-- Generator: Sketch 46.2 (44496) - http://www.bohemiancoding.com/sketch -->
    <title>logo .net</title>
    <desc>Created with Sketch.</desc>
    <defs></defs>
    <g id="Page-1" stroke="none" stroke-width="1" fill="none" fill-rule="evenodd">
        <g id="Desktop-HD" transform="translate(-979.000000, -1528.000000)">
            <g id="materi" transform="translate(272.000000, 1250.000000)">
                <g transform="translate(0.000000, 279.000000)" id="net">
                    <g transform="translate(708.000000, 0.000000)">
                        <g id="logo-.net">
                            <path d="M104.988354,2.9407219 L176.988354,44.4512905 L176.988354,44.4512905 C183.80174,48.3794505 188,55.6459217 188,63.5105686 L188,146.477933 L188,146.477933 C188,154.34258 183.80174,161.609051 176.988354,165.537211 L104.988354,207.04778 L104.988354,207.04778 C98.1874519,210.968742 89.8125481,210.968742 83.0116462,207.04778 L11.0116462,165.537211 L11.0116462,165.537211 C4.1982603,161.609051 -1.38555833e-13,154.34258 -1.49213975e-13,146.477933 L-1.91846539e-13,63.5105686 L-1.91846539e-13,63.5105686 C-1.97175609e-13,55.6459217 4.1982603,48.3794505 11.0116462,44.4512905 L83.0116462,2.9407219 L83.0116462,2.9407219 C89.8125481,-0.980240633 98.1874519,-0.980240633 104.988354,2.9407219 Z" id="Polygon-2" stroke="#7A5193"></path>
                            <g id="microsoft-net" transform="translate(50.000000, 61.000000)" fill-rule="nonzero">
                                <path d="M68.024,24.4877098 C67.5411399,24.4877098 67.1398964,24.8096166 67.1398964,25.2915648 C67.1398964,25.8542176 67.5415959,26.1761244 68.024,26.1761244 C68.5064041,26.1761244 68.9081036,25.8542176 68.9081036,25.2915648 C68.9085596,24.8096166 68.5068601,24.4877098 68.024,24.4877098 Z M68.024,24.5679585 C68.2160938,24.5672272 68.4005244,24.6432438 68.5363133,24.7791184 C68.6721023,24.914993 68.7480027,25.0994715 68.7471503,25.2915648 C68.7471503,25.7739689 68.4256995,26.0958756 68.024,26.0958756 C67.5411399,26.0958756 67.2196891,25.7739689 67.2196891,25.2915648 C67.2201451,24.8898653 67.5415959,24.5679585 68.024,24.5679585 L68.024,24.5679585 Z M68.4256995,25.8546736 L68.1844974,25.3722694 C68.3459067,25.2920207 68.4256995,25.2113161 68.4256995,25.1310674 C68.4256995,24.970114 68.2652021,24.8096166 68.024,24.8096166 L67.6213886,24.8096166 L67.6213886,25.8546736 L67.7827979,25.8546736 L67.7827979,25.4529741 L68.024,25.4529741 L68.2652021,25.8546736 L68.4256995,25.8546736 Z M67.7827979,25.2915648 L67.7827979,24.970114 L68.024,24.970114 C68.1844974,24.970114 68.2652021,25.0503627 68.2652021,25.0503627 C68.2652021,25.2113161 68.1840415,25.2915648 68.024,25.2915648 L67.7827979,25.2915648 L67.7827979,25.2915648 Z" id="Shape" fill="#0C0E0F"></path>
                                <path d="M60.2257409,57.5319378 C58.6175751,61.1504249 56.4463005,62.7576788 52.9892228,62.7576788 C50.1750466,62.7576788 47.4420311,61.1504249 46.2360207,58.7379482 C45.4317098,57.0495337 45.1102591,55.6023212 45.1102591,52.5478549 L64.4857617,52.5478549 C64.4857617,49.0096166 64.0840622,46.8392539 63.0385492,44.5881865 C61.1896373,40.4877513 57.4913575,38.1559793 52.9085181,38.1559793 C45.5917513,38.1559793 40.5269637,43.8641244 40.5269637,52.3066528 C40.5269637,60.587772 45.4312539,66.1349637 52.7471088,66.1349637 C58.1338031,66.1349637 62.314943,63.2405389 64.0038135,58.3362487 L60.2257409,57.5319378 L60.2257409,57.5319378 Z M45.3519171,49.411772 C45.5922073,46.8387979 46.0750674,45.5520829 47.200829,44.1048705 C48.7282902,42.3362073 50.6579067,41.2911503 52.9892228,41.2911503 C57.2506114,41.2911503 59.8231295,44.3465285 59.9845389,49.411772 L45.3519171,49.411772 Z M83.7021347,62.5971813 C82.2549223,62.8383834 81.4506114,62.9186321 80.4853472,62.9186321 C77.6720829,62.9186321 76.2239585,61.5516684 76.2239585,58.7374922 L76.2239585,31.8040207 L72.1239793,31.9649741 L72.1239793,58.0945907 C72.1239793,63.481285 74.6969534,66.2147565 79.7621969,66.2147565 C80.9682073,66.2147565 81.8523109,66.1345078 83.7021347,65.8933057 L83.7021347,62.5971813 Z M1.29218653,61.7928705 C1.29218653,59.4615544 3.1415544,57.6117306 5.47287047,57.6117306 C7.80418653,57.6117306 9.6535544,59.4615544 9.6535544,61.7928705 C9.6535544,64.1241865 7.80418653,65.9740104 5.47287047,65.9740104 C3.1415544,65.9740104 1.29218653,64.1246425 1.29218653,61.7928705 Z M34.2561658,66.1345078 L34.2561658,49.6534301 C34.2561658,45.8739896 33.9342591,43.8641244 33.3720622,42.5778653 C31.9248497,39.6031917 29.0304249,37.7538238 25.5733472,37.7538238 C21.9553161,37.7538238 19.7849534,39.1207876 17.0510259,43.3817202 L17.0510259,38.4774301 L13.2720415,38.4774301 L13.2720415,66.1345078 L17.3724767,66.1345078 L17.3724767,50.4563731 C17.3724767,45.2306321 20.5076477,41.2911503 24.849285,41.2911503 C28.3866114,41.2911503 30.316228,43.6229223 30.316228,47.9645596 L30.316228,66.1345078 L34.2561658,66.1345078 Z" id="Shape" fill="#1A4171"></path>
                                <path d="M52.8287254,38.1555233 L82.8171192,38.1555233 L82.8171192,41.2911503 L52.8287254,41.2911503 L52.8287254,38.1555233 Z M33.8544663,62.9988808 L52.9892228,62.9988808 L52.9892228,66.0542591 L33.8544663,66.0542591 L33.8544663,62.9988808 Z M12.3874819,33.0907358 L12.3874819,21.9147358 L10.2969119,21.9147358 L7.00078756,30.8392124 L3.62395855,21.9147358 L1.61409326,21.9147358 L1.61409326,33.0907358 L2.73985492,33.0907358 L2.73985492,23.2816995 L6.43813472,33.0907358 L7.40294301,33.0907358 L11.0209741,23.2816995 L11.0209741,33.0907358 L12.3874819,33.0907358 Z M15.1214093,33.0907358 L16.4076684,33.0907358 L16.4076684,24.8096166 L15.1214093,24.8096166 L15.1214093,33.0907358 Z M15.1214093,23.2816995 L16.4883731,23.2816995 L16.4883731,21.9147358 L15.1214093,21.9147358 L15.1214093,23.2816995 Z M23.8844767,30.1963109 C23.6432746,31.5632746 22.9196684,32.2864249 21.8746114,32.2864249 C20.5076477,32.2864249 19.7037927,31.0001658 19.7037927,28.9095959 C19.7037927,26.8997306 20.5878964,25.6134715 21.9553161,25.6134715 C23.0003731,25.6134715 23.7239793,26.3370777 23.8844767,27.7035855 L25.090487,27.4623834 C24.7690363,25.6130155 23.6432746,24.5679585 21.9553161,24.5679585 C19.7844974,24.5679585 18.337285,26.3366218 18.337285,28.9095959 C18.337285,31.5628187 19.7042487,33.2512332 21.8746114,33.2512332 C22.759171,33.2512332 23.4827772,33.0100311 24.1261347,32.3666736 C24.6085389,31.8842694 24.8497409,31.4018653 25.090943,30.3568083 L23.8844767,30.1963109 L23.8844767,30.1963109 Z M28.1458653,33.0907358 L28.1458653,28.6688497 C28.226114,26.9804352 29.4321244,25.6941762 30.9600415,25.8546736 L30.9600415,24.5684145 L30.4776373,24.5684145 C29.9145285,24.5684145 29.2716269,24.8903212 28.8694715,25.2920207 C28.6282694,25.6941762 28.4673161,25.9353782 28.0656166,26.7392332 L28.0656166,24.8100725 L26.9398549,24.8100725 L26.9398549,33.0911917 L28.1458653,33.0911917 L28.1458653,33.0907358 L28.1458653,33.0907358 Z M35.3012228,24.5679585 C34.0952124,24.5679585 33.1304041,25.0503627 32.4067979,26.015171 C31.8441451,26.7387772 31.5226943,27.7035855 31.5226943,28.9095959 C31.5226943,30.1156062 31.7638964,31.0804145 32.3265492,31.8842694 C32.9699067,32.8490777 33.8544663,33.2512332 35.1407254,33.2512332 C37.3922487,33.2512332 38.9197098,31.4825699 38.9197098,28.9898446 C38.9192539,26.4173264 37.4724974,24.5679585 35.3012228,24.5679585 Z M35.2209741,25.6134715 C35.8643316,25.6134715 36.5072332,26.015171 36.9093886,26.4975751 C37.311544,27.0606839 37.5527461,27.8645389 37.5527461,28.9095959 C37.5527461,30.9997098 36.6686425,32.2864249 35.2209741,32.2864249 C33.7737617,32.2864249 32.8892021,31.0001658 32.8892021,28.9095959 C32.8892021,27.9447876 33.1304041,27.0606839 33.4518549,26.5778238 C33.8544663,26.015171 34.5776166,25.6134715 35.2209741,25.6134715 L35.2209741,25.6134715 Z M39.8038135,30.9194611 C39.9647668,31.6430674 40.205513,32.0452228 40.6883731,32.3666736 C41.3312746,33.0100311 42.2960829,33.2512332 43.5020933,33.2512332 C45.5119585,33.2512332 46.8789223,32.2864249 46.8789223,30.7589637 C46.8789223,29.392 46.0746114,28.5881451 44.3861969,28.346943 L42.778487,28.0250363 C41.8136788,27.8640829 41.4115233,27.4623834 41.4115233,26.8997306 C41.4115233,26.0958756 42.1351295,25.6134715 43.2608912,25.6134715 C44.2256995,25.6134715 44.9493057,26.015171 45.3514611,26.9804352 L46.5574715,26.6589845 C46.0746114,25.2920207 44.9493057,24.5684145 43.2608912,24.5684145 C41.3312746,24.5684145 40.1252642,25.5332228 40.1252642,26.9804352 C40.1252642,28.1864456 40.9291192,29.0710052 42.3763316,29.3117513 L44.1449948,29.633658 C45.0290984,29.7946114 45.5119585,30.2770155 45.5119585,30.9199171 C45.5119585,31.723772 44.7076477,32.2868808 43.582342,32.2868808 C42.778487,32.2868808 42.0548808,32.0456788 41.5724767,31.6439793 C41.3312746,31.4027772 41.1703212,31.1611192 41.0098238,30.679171 L39.8038135,30.9194611 L39.8038135,30.9194611 Z M51.9446218,24.5679585 C50.7381554,24.5679585 49.7733472,25.0503627 48.9694922,26.015171 C48.4068394,26.7387772 48.0853886,27.7035855 48.0853886,28.9095959 C48.0853886,30.1156062 48.4068394,31.0804145 48.8896995,31.8842694 C49.6128497,32.8490777 50.4969534,33.2512332 51.7038756,33.2512332 C53.955399,33.2512332 55.4824041,31.4825699 55.4824041,28.9898446 C55.4819482,26.4173264 54.1149845,24.5679585 51.9446218,24.5679585 Z M51.7832124,25.6134715 C52.5072746,25.6134715 53.1501762,26.015171 53.5518756,26.4975751 C53.954487,27.0606839 54.1145285,27.8645389 54.1145285,28.9095959 C54.1145285,30.9997098 53.2304249,32.2864249 51.7832124,32.2864249 C50.336,32.2864249 49.5316891,31.0001658 49.5316891,28.9095959 C49.5316891,27.9447876 49.6930984,27.0606839 50.094342,26.5778238 C50.4162487,26.015171 51.1403109,25.6134715 51.7832124,25.6134715 L51.7832124,25.6134715 Z M60.9488912,24.8096166 L58.9390259,24.8096166 C58.9390259,23.925513 58.9390259,23.8448083 59.1004352,23.5233575 C59.2609326,22.9607047 59.8235855,22.7195026 60.6278964,22.7195026 C60.9493472,22.7195026 61.1107565,22.7195026 61.4322073,22.7997513 L61.4322073,21.7546943 C60.8695544,21.6744456 60.5481036,21.6744456 60.2261969,21.6744456 C59.1806839,21.6744456 58.2965803,22.1568497 57.9746736,22.9607047 C57.8132642,23.4431088 57.8132642,23.7645596 57.7334715,24.8100725 L56.2862591,24.8100725 L56.2862591,25.8551295 L57.7334715,25.8551295 L57.7334715,33.0911917 L58.9394819,33.0911917 L58.9394819,25.8551295 L60.9493472,25.8551295 L60.9493472,24.8096166 L60.9488912,24.8096166 L60.9488912,24.8096166 Z M66.8184456,32.2061762 C66.4158342,32.2864249 66.0943834,32.2864249 65.8531813,32.2864249 C64.9690777,32.2864249 64.4862176,31.8847254 64.4862176,31.0001658 L64.4862176,25.8546736 L66.3360415,25.8546736 L66.3360415,24.8096166 L64.4862176,24.8096166 L64.4862176,22.6387979 L63.2802073,22.7190466 L63.1999585,24.8091606 L61.7527461,24.8091606 L61.7527461,25.8542176 L63.1999585,25.8542176 L63.1999585,30.8392124 C63.1999585,32.4469223 64.0042694,33.3314819 65.6115233,33.3314819 C65.9329741,33.3314819 66.2553368,33.2512332 66.8179896,33.2512332 L66.8179896,32.2061762 L66.8184456,32.2061762 L66.8184456,32.2061762 Z M84.2652435,39.8439378 L84.2652435,38.3164767 L84.7467358,38.3164767 L84.7467358,38.1555233 L83.5411813,38.1555233 L83.5411813,38.3164767 L84.0235855,38.3164767 L84.0235855,39.8439378 L84.2652435,39.8439378 Z M86.5965596,39.8439378 L86.5965596,38.1555233 L86.1939482,38.1555233 L85.712,39.522487 L85.2295959,38.1555233 L84.9081451,38.1555233 L84.9081451,39.8439378 L85.1493472,39.8439378 L85.1493472,38.3967254 L85.712,39.8439378 L85.7922487,39.8439378 L86.3553575,38.3967254 L86.3553575,39.8439378 L86.5965596,39.8439378 Z" id="Shape" fill="#1A4171"></path>
                            </g>
                        </g>
                    </g>
                </g>
            </g>
        </g>
    </g>
</svg>