<?xml version="1.0" encoding="UTF-8"?>
<svg width="190px" height="212px" viewBox="0 0 190 212" version="1.1" xmlns="http://www.w3.org/2000/svg" xmlns:xlink="http://www.w3.org/1999/xlink">
    <!-- Generator: Sketch 46.2 (44496) - http://www.bohemiancoding.com/sketch -->
    <title>logo android</title>
    <desc>Created with Sketch.</desc>
    <defs></defs>
    <g id="Page-1" stroke="none" stroke-width="1" fill="none" fill-rule="evenodd">
        <g id="Desktop-HD" transform="translate(-271.000000, -1528.000000)">
            <g id="materi" transform="translate(272.000000, 1250.000000)">
                <g transform="translate(0.000000, 279.000000)" id="android">
                    <g>
                        <g id="logo-android">
                            <path d="M104.988354,2.9407219 L176.988354,44.4512905 L176.988354,44.4512905 C183.80174,48.3794505 188,55.6459217 188,63.5105686 L188,146.477933 L188,146.477933 C188,154.34258 183.80174,161.609051 176.988354,165.537211 L104.988354,207.04778 L104.988354,207.04778 C98.1874519,210.968742 89.8125481,210.968742 83.0116462,207.04778 L11.0116462,165.537211 L11.0116462,165.537211 C4.1982603,161.609051 -1.38555833e-13,154.34258 -1.49213975e-13,146.477933 L-1.91846539e-13,63.5105686 L-1.91846539e-13,63.5105686 C-1.97175609e-13,55.6459217 4.1982603,48.3794505 11.0116462,44.4512905 L83.0116462,2.9407219 L83.0116462,2.9407219 C89.8125481,-0.980240633 98.1874519,-0.980240633 104.988354,2.9407219 Z" id="Polygon-2" stroke="#7A5193"></path>
                            <g id="android" transform="translate(61.000000, 65.000000)" fill-rule="nonzero" fill="#1A4171">
                                <path d="M41.6652795,79.9997336 C44.3340591,79.9997336 46.6613842,77.6720909 46.6613842,75.0029468 L46.6613842,63.3333 L49.9973587,63.3333 C51.9992098,63.3333 53.3333333,61.9984616 53.3333333,59.99687 L53.3333333,26.6666667 L13.3333333,26.6666667 L13.3333333,59.9971364 C13.3333333,61.9989944 14.6677232,63.3335664 16.6693079,63.3335664 L20.0055489,63.3335664 L20.0055489,75.0032132 C20.0055489,77.6723572 22.3323412,80 25.0016536,80 C27.6701669,80 29.9972256,77.6723572 29.9972256,75.0032132 L29.9972256,63.3335664 L36.6694411,63.3335664 L36.6694411,75.0032132 C36.6691748,77.6720909 38.9964998,79.9997336 41.6652795,79.9997336 Z" id="XMLID_221_"></path>
                                <path d="M61.5875724,60.3174603 C64.3009721,60.3174603 66.6666667,57.9677166 66.6666667,55.2726517 L66.6666667,31.7093237 C66.6666667,29.0287817 64.3009721,26.6666667 61.5875724,26.6666667 C58.8739019,26.6666667 56.5079365,29.0287817 56.5079365,31.7093237 L56.5079365,55.2726517 C56.5079365,57.9674477 58.8736311,60.3174603 61.5875724,60.3174603 Z" id="XMLID_222_"></path>
                                <path d="M5.07909428,60.3174603 C7.79276478,60.3174603 10.1587302,57.9677166 10.1587302,55.2726517 L10.1587302,31.7093237 C10.1587302,29.0287817 7.79303557,26.6666667 5.07909428,26.6666667 C2.36569459,26.6666667 0,29.0287817 0,31.7093237 L0,55.2726517 C-1.92413817e-15,57.9674477 2.36569459,60.3174603 5.07909428,60.3174603 Z" id="XMLID_223_"></path>
                                <path d="M49.3298975,0.51074403 C48.6629689,-0.17024801 47.6700337,-0.17024801 47.0031051,0.51074403 L42.5287708,5.03528757 L42.3223532,5.24444941 C39.6692879,3.89651755 36.6947439,3.22336232 33.3822077,3.21687668 C33.3659606,3.21687668 33.3499799,3.21633621 33.3337329,3.21633621 L33.3332002,3.21633621 C33.3164204,3.21633621 33.3009724,3.21687668 33.2841926,3.21687668 C29.9719228,3.22336232 26.9973787,3.89651755 24.3445798,5.24444941 L24.1376295,5.03528757 L19.6635615,0.51074403 C18.9961003,-0.17024801 18.0036978,-0.17024801 17.3367692,0.51074403 C16.6693079,1.18795278 16.6693079,2.19295651 17.3367692,2.86962479 L21.6648799,7.26175321 C20.2702961,8.20649455 19.0056887,9.36255961 17.905949,10.6848192 C15.273126,13.8511619 13.593819,17.9719744 13.3628977,22.4367961 C13.3607669,22.4832765 13.356239,22.5292164 13.3541083,22.5756968 C13.339992,22.8797111 13.3333333,23.1853468 13.3333333,23.4920635 L53.3333333,23.4920635 C53.3333333,23.1853468 53.326142,22.8797111 53.3125584,22.5756968 C53.3104276,22.5292164 53.3058998,22.4832765 53.3032363,22.4367961 C53.0728477,17.9719744 51.393008,13.8508917 48.7601849,10.6850894 C47.660978,9.36282984 46.3958379,8.20676478 45.001254,7.26202345 L49.3298975,2.86989502 C49.9973587,2.19295651 49.9973587,1.18795278 49.3298975,0.51074403 Z M24.9952613,17.5822957 C23.61506,17.5822957 22.4961435,16.4470387 22.4961435,15.0466813 C22.4961435,13.6463238 23.61506,12.5110669 24.9952613,12.5110669 C26.3754625,12.5110669 27.494379,13.6463238 27.494379,15.0466813 C27.494379,16.4470387 26.3754625,17.5822957 24.9952613,17.5822957 Z M41.6714054,17.5822957 C40.2912042,17.5822957 39.1722877,16.4470387 39.1722877,15.0466813 C39.1722877,13.6463238 40.2912042,12.5110669 41.6714054,12.5110669 C43.0516066,12.5110669 44.1705231,13.6463238 44.1705231,15.0466813 C44.1705231,16.4470387 43.0516066,17.5822957 41.6714054,17.5822957 Z" id="XMLID_224_"></path>
                            </g>
                        </g>
                    </g>
                </g>
            </g>
        </g>
    </g>
</svg>