<?xml version="1.0" encoding="UTF-8"?>
<svg width="190px" height="212px" viewBox="0 0 190 212" version="1.1" xmlns="http://www.w3.org/2000/svg" xmlns:xlink="http://www.w3.org/1999/xlink">
    <!-- Generator: Sketch 46.2 (44496) - http://www.bohemiancoding.com/sketch -->
    <title>logo laravel</title>
    <desc>Created with Sketch.</desc>
    <defs></defs>
    <g id="Page-1" stroke="none" stroke-width="1" fill="none" fill-rule="evenodd">
        <g id="Desktop-HD" transform="translate(-507.000000, -1528.000000)">
            <g id="materi" transform="translate(272.000000, 1250.000000)">
                <g transform="translate(0.000000, 279.000000)" id="Laravel">
                    <g transform="translate(236.000000, 0.000000)">
                        <g id="logo-laravel">
                            <path d="M104.988354,2.9407219 L176.988354,44.4512905 L176.988354,44.4512905 C183.80174,48.3794505 188,55.6459217 188,63.5105686 L188,146.477933 L188,146.477933 C188,154.34258 183.80174,161.609051 176.988354,165.537211 L104.988354,207.04778 L104.988354,207.04778 C98.1874519,210.968742 89.8125481,210.968742 83.0116462,207.04778 L11.0116462,165.537211 L11.0116462,165.537211 C4.1982603,161.609051 -1.38555833e-13,154.34258 -1.49213975e-13,146.477933 L-1.91846539e-13,63.5105686 L-1.91846539e-13,63.5105686 C-1.97175609e-13,55.6459217 4.1982603,48.3794505 11.0116462,44.4512905 L83.0116462,2.9407219 L83.0116462,2.9407219 C89.8125481,-0.980240633 98.1874519,-0.980240633 104.988354,2.9407219 Z" id="Polygon-2" stroke="#7A5193"></path>
                            <g id="laravel" transform="translate(54.000000, 65.000000)" fill-rule="nonzero" fill="#1A4171">
                                <path d="M50.1390625,65 C50.7640625,65.9028125 51.1459375,65.8334375 51.631875,65.625 C52.1178125,65.4165625 77.118125,56.9790625 77.881875,56.7015625 C78.645625,56.42375 78.4028125,56.180625 78.16,55.7984375 C77.916875,55.4165625 69.5834375,44.0971875 69.1665625,43.4375 C68.75,42.7778125 68.5415625,42.9165625 67.881875,43.125 L41.3803125,50.0209375 C41.3803125,50.0209375 49.5140625,64.096875 50.1390625,65 Z M80,53.4734375 L80,40.2240625 C77.0184375,41.0184375 73.2471875,42.0228125 71.7584375,42.41875 C74.004375,45.42375 77.515625,50.1265625 80,53.4734375 Z M71.7328125,26.1003125 C71.324375,26.193125 62.280625,27.8275 61.7234375,27.9015625 C61.1665625,27.9759375 61.3521875,28.2915625 61.575,28.6071875 L69.5334375,39.526875 C69.5334375,39.526875 79.264375,37.1128125 79.85875,36.9828125 C79.906875,36.9721875 79.9540625,36.9609375 80,36.949375 L80,35.5034375 C78.23125,33.260625 73.4125,27.1540625 72.9959375,26.5834375 C72.4946875,25.89625 72.1415625,26.0078125 71.7328125,26.1003125 L71.7328125,26.1003125 Z" id="Shape"></path>
                                <path d="M14.83,8.948125 C16.7884375,8.8590625 16.9671875,9.3046875 17.8275,10.580625 L39.443125,46.71875 L66.6225,40.2078125 C65.1165625,38.073125 58.2803125,28.3809375 57.619375,27.4559375 C56.876875,26.4159375 57.638125,25.933125 58.8453125,25.7290625 C60.0521875,25.5246875 70.4515625,23.7790625 71.3428125,23.6490625 C72.234375,23.5190625 72.9403125,23.2034375 74.3884375,24.9490625 C75.1296875,25.8421875 77.6421875,28.9709375 80,31.90375 L80,15 C80,10.868125 78.5328125,7.335 75.5990625,4.4009375 C72.665,1.4671875 69.131875,0 65,0 L15,0 C10.868125,0 7.335,1.4671875 4.4009375,4.4009375 C2.718125,6.084375 1.5203125,7.9646875 0.803125,10.041875 C5.7025,9.639375 13.4596875,9.010625 14.8303125,8.948125 L14.83,8.948125 Z" id="Shape"></path>
                                <path d="M52.5903125,69.86375 C50.2984375,70.558125 49.270625,70.9028125 47.7778125,68.819375 C46.6596875,67.2590625 40.613125,56.3684375 37.6484375,50.9996875 C32.0375,52.4690625 21.7690625,55.1490625 18.8078125,55.860625 C15.9178125,56.555 14.6834375,54.8221875 14.20875,53.754375 C13.8759375,53.005 5.4028125,34.736875 0,23.015625 L0,65 C0,69.1321875 1.4671875,72.6646875 4.4009375,75.5990625 C7.335,78.5328125 10.868125,80 15,80 L65,80 C69.131875,80 72.665,78.5328125 75.5990625,75.5990625 C78.5328125,72.6646875 80,69.1321875 80,65 L80,60.0684375 C73.8625,62.3134375 54.134375,69.3959375 52.5903125,69.86375 Z" id="Shape"></path>
                                <path d="M18.87875,51.6525 C19.69125,51.4665625 34.9140625,47.8234375 35.2390625,47.75375 C35.5640625,47.6840625 35.7728125,47.4984375 35.4246875,46.8953125 C35.0765625,46.2921875 15.1328125,11.8671875 15.1328125,11.8671875 C14.94875,11.55125 15.00125,11.4459375 14.5009375,11.4721875 C14.055,11.4959375 2.7703125,12.5028125 0.1578125,12.7209375 C0.0806948057,13.273349 0.0326079026,13.8294255 0.01375,14.386875 C2.6659375,19.8165625 17.8884375,51.2109375 17.97375,51.4665625 C18.0665625,51.7453125 18.0665625,51.838125 18.87875,51.6525 Z" id="Shape"></path>
                            </g>
                        </g>
                    </g>
                </g>
            </g>
        </g>
    </g>
</svg>