<?xml version="1.0" encoding="UTF-8"?>
<svg width="190px" height="212px" viewBox="0 0 190 212" version="1.1" xmlns="http://www.w3.org/2000/svg" xmlns:xlink="http://www.w3.org/1999/xlink">
    <!-- Generator: Sketch 46.2 (44496) - http://www.bohemiancoding.com/sketch -->
    <title>logo java spring</title>
    <desc>Created with Sketch.</desc>
    <defs></defs>
    <g id="Page-1" stroke="none" stroke-width="1" fill="none" fill-rule="evenodd">
        <g id="homepage" transform="translate(-743.000000, -1528.000000)">
            <g id="materi" transform="translate(272.000000, 1248.000000)">
                <g transform="translate(0.000000, 281.000000)" id="Java">
                    <g transform="translate(472.000000, 0.000000)">
                        <g id="logo-java-spring">
                            <path d="M104.988354,2.9407219 L176.988354,44.4512905 L176.988354,44.4512905 C183.80174,48.3794505 188,55.6459217 188,63.5105686 L188,146.477933 L188,146.477933 C188,154.34258 183.80174,161.609051 176.988354,165.537211 L104.988354,207.04778 L104.988354,207.04778 C98.1874519,210.968742 89.8125481,210.968742 83.0116462,207.04778 L11.0116462,165.537211 L11.0116462,165.537211 C4.1982603,161.609051 -1.38555833e-13,154.34258 -1.49213975e-13,146.477933 L-1.90070182e-13,63.5105686 L-2.06057393e-13,63.5105686 C-2.11386464e-13,55.6459217 4.1982603,48.3794505 11.0116462,44.4512905 L83.0116462,2.9407219 L83.0116462,2.9407219 C89.8125481,-0.980240633 98.1874519,-0.980240633 104.988354,2.9407219 Z" id="Polygon-2" stroke="#7A5193"></path>
                            <g id="Group-5" transform="translate(13.000000, 65.000000)" fill="#1A4171">
                                <g id="java" fill-rule="nonzero">
                                    <path d="M33.3721288,42.5711856 C33.3721288,42.5711856 31.4813029,43.67314 34.7191985,44.0453941 C38.6429498,44.4941556 40.6471267,44.4295768 44.9696598,43.6106178 C44.9696598,43.6106178 46.1076873,44.3242762 47.6962439,44.9416832 C38.0035024,49.1014685 25.7599528,44.7010549 33.3721288,42.5711856 Z M32.1872824,37.1428571 C32.1872824,37.1428571 30.0660583,38.7153736 33.3068288,39.0510193 C37.4983512,39.4845616 40.8068859,39.519936 46.5356284,38.415925 C46.5356284,38.415925 47.3266212,39.2200761 48.5714286,39.6593771 C36.8539755,43.09193 23.8038269,39.9296212 32.1872824,37.1428571 Z" id="Shape"></path>
                                    <path d="M42.2660683,27.083237 C44.7384696,29.8724508 41.6180085,32.3809524 41.6180085,32.3809524 C41.6180085,32.3809524 47.8929272,29.2069045 45.0108672,25.2307026 C42.3200379,21.5243843 40.2560206,19.683095 51.4285714,13.3333333 C51.4281465,13.3329168 33.8905861,17.6243995 42.2660683,27.083237 Z" id="Shape"></path>
                                    <path d="M54.9248034,45.7178487 C54.9248034,45.7178487 56.3494262,46.8510013 53.3555447,47.7272791 C47.6624881,49.3907148 29.6561429,49.8923667 24.6544965,47.7934133 C22.8578332,47.0385159 26.2287715,45.9920636 27.2892961,45.7710787 C28.3953852,45.5404156 29.0266001,45.5823543 29.0266001,45.5823543 C27.0271956,44.2241843 16.1029979,48.2499004 23.4785975,49.4048288 C43.590525,52.5506379 60.1408957,47.9885897 54.9248034,45.7178487 Z M33.8468245,30.9449263 C33.8468245,30.9449263 24.6887744,33.0438798 30.6042193,33.8068423 C33.1027434,34.1290448 38.0797265,34.0548455 42.7193649,33.6794131 C46.5099984,33.3725344 50.3148447,32.7160317 50.3148447,32.7160317 C50.3148447,32.7160317 48.9792608,33.2688973 48.0115374,33.9052371 C38.7101053,36.2655012 20.7443084,35.1662222 25.9169263,32.7535347 C30.290284,30.7126502 33.8468245,30.9449263 33.8468245,30.9449263 L33.8468245,30.9449263 Z M50.2768046,39.8032761 C59.7312331,35.0650046 55.3599655,30.5106184 52.3079788,31.1243758 C51.5618076,31.2747907 51.2269711,31.4046395 51.2269711,31.4046395 C51.2269711,31.4046395 51.5053745,30.9844455 52.0345917,30.8037863 C58.0712633,28.7572563 62.7129919,36.8413524 50.0882761,40.0428109 C50.0878581,40.0428109 50.2333302,39.9161881 50.2768046,39.8032761 Z" id="Shape"></path>
                                    <path d="M44.4344743,3.80952381 C44.4344743,3.80952381 49.4233401,9.04275159 39.701366,17.0874142 C31.9047443,23.543023 37.9238111,27.222695 39.6989757,31.4285714 C35.1471286,27.1241361 31.8083372,23.3342118 34.0480085,19.8078072 C37.3362061,14.6313761 46.4474695,12.1210472 44.4344743,3.80952381 Z" id="Shape"></path>
                                    <path d="M34.7460076,54.1279823 C43.8229185,54.7066305 57.7644615,53.8065573 58.0952381,49.5238095 C58.0952381,49.5238095 57.4604481,51.1471931 50.5927568,52.4349774 C42.8443885,53.8891022 33.2861579,53.7198434 27.6190476,52.7872525 C27.6190476,52.7872525 28.7803202,53.7452739 34.7460076,54.1279823 Z" id="Shape"></path>
                                    <path d="M57.4033478,60.5045659 L57.1306112,60.5045659 L57.1306112,60.3483654 L57.8665868,60.3483654 L57.8665868,60.5045659 L57.5938502,60.5045659 L57.5938502,61.2847242 L57.4033478,61.2847242 L57.4033478,60.5045659 Z M58.8719932,60.543405 L58.8686873,60.543405 L58.5976036,61.284302 L58.4732192,61.284302 L58.2037885,60.543405 L58.2004826,60.543405 L58.2004826,61.284302 L58.0194846,61.284302 L58.0194846,60.3479432 L58.2851962,60.3479432 L58.5347916,61.0103179 L58.7843869,60.3479432 L59.047619,60.3479432 L59.047619,61.284302 L58.8724064,61.284302 L58.8724064,60.543405 L58.8719932,60.543405 L58.8719932,60.543405 Z M33.2744218,69.2961226 C32.4285251,70.0450408 31.5342795,70.4663601 30.7313595,70.4663601 C29.5875186,70.4663601 28.9668362,69.764302 28.9668362,68.6409247 C28.9668362,67.4246714 29.6313218,66.5347506 32.290917,66.5347506 L33.2740086,66.5347506 L33.2740086,69.2961226 L33.2744218,69.2961226 L33.2744218,69.2961226 Z M35.6092126,71.9869933 L35.6092126,63.6568614 C35.6092126,61.5278904 34.4207421,60.12293 31.5557679,60.12293 C29.884223,60.12293 28.4188835,60.5446714 27.2275204,61.0820857 L27.5705074,62.5575474 C28.5089693,62.205463 29.722234,61.8791305 30.9131839,61.8791305 C32.5636537,61.8791305 33.2740086,62.5575474 33.2740086,63.9620857 L33.2740086,65.0153838 L32.4491869,65.0153838 C28.4399586,65.0153838 26.6308057,66.6044076 26.6308057,68.9934313 C26.6308057,71.051901 27.8229953,72.2221385 30.0672871,72.2221385 C31.5098985,72.2221385 32.5876214,71.6138007 33.5938543,70.7234577 L33.7769184,71.9869933 L35.6092126,71.9869933 L35.6092126,71.9869933 Z M43.4016284,71.9869933 L40.4903716,71.9869933 L36.9848795,60.3348561 L39.5279419,60.3348561 L41.7036363,67.4951728 L42.1879504,69.6465184 C43.2855087,66.5347506 44.064461,63.3757005 44.4541438,60.3348561 L46.9269558,60.3348561 C46.2649496,64.1714788 45.0723468,68.3838271 43.4016284,71.9869933 L43.4016284,71.9869933 Z M54.5743253,69.2961226 C53.7259491,70.0450408 52.8317036,70.4663601 52.0304364,70.4663601 C50.8865956,70.4663601 50.2667396,69.764302 50.2667396,68.6409247 C50.2667396,67.4246714 50.9316385,66.5347506 53.5895808,66.5347506 L54.5743253,66.5347506 L54.5743253,69.2961226 L54.5743253,69.2961226 Z M56.9099425,71.9869933 L56.9099425,63.6568614 C56.9099425,61.5278904 55.7177529,60.12293 52.8556713,60.12293 C51.1824735,60.12293 49.7175473,60.5446714 48.5261841,61.0820857 L48.8691711,62.5575474 C49.807633,62.205463 51.0233771,61.8791305 52.2147403,61.8791305 C53.8627306,61.8791305 54.573912,62.5575474 54.573912,63.9620857 L54.573912,65.0153838 L53.7490904,65.0153838 C49.7394488,65.0153838 47.9315357,66.6044076 47.9315357,68.9934313 C47.9315357,71.051901 49.1212458,72.2221385 51.3659509,72.2221385 C52.809802,72.2221385 53.8858719,71.6138007 54.8945842,70.7234577 L55.0784748,71.9869933 L56.9099425,71.9869933 L56.9099425,71.9869933 Z M24.0708007,73.9669406 C23.4054886,74.9602915 22.3294187,75.7467823 21.1529321,76.1904762 L20,74.8032466 C20.8963117,74.3333786 21.6641066,73.5747506 22.0215569,72.8688931 C22.3294187,72.2398693 22.4579355,71.4310039 22.4579355,69.4949617 L22.4579355,56.1904762 L24.9394255,56.1904762 L24.9394255,69.3113205 C24.9394255,71.900872 24.7369392,72.9474155 24.0708007,73.9669406 L24.0708007,73.9669406 Z" id="Shape"></path>
                                </g>
                                <text id="add---material" font-family="material" font-size="20" font-weight="normal">
                                    <tspan x="71" y="47"></tspan>
                                </text>
                                <path d="M147.72392,42 L137.908965,59 L137.908965,59 C137.194434,60.2376043 135.873926,61 134.444864,61 L114.814955,61 L114.814955,61 C113.385892,61 112.065384,60.2376043 111.350853,59 L101.535898,42 L101.535898,42 C100.821367,40.7623957 100.821367,39.2376043 101.535898,38 L111.350853,21 C112.065384,19.7623957 113.385892,19 114.814955,19 L134.444864,19 L134.444864,19 C135.873926,19 137.194434,19.7623957 137.908965,21 L147.72392,38 C148.438451,39.2376043 148.438451,40.7623957 147.72392,42 L147.72392,42 Z M132.607909,30.9155277 C131.955909,30.2088611 131.296576,30.1888611 130.629909,30.8555277 C129.963242,31.5221944 129.965242,32.2221944 130.635909,32.9555277 C131.769248,33.8621989 132.658906,34.9785211 133.304909,36.3045277 C133.950912,37.6305344 134.273909,39.0641867 134.273909,40.6055277 C134.273909,42.4188701 133.831914,44.0848535 132.947909,45.6035277 C132.063905,47.0995352 130.873917,48.2895233 129.377909,49.1735277 C127.859235,50.0575322 126.193252,50.4995277 124.379909,50.4995277 C122.566567,50.4995277 120.900583,50.0575322 119.381909,49.1735277 C117.885902,48.2895233 116.695914,47.0995352 115.811909,45.6035277 C114.927905,44.0848535 114.485909,42.4188701 114.485909,40.6055277 C114.485909,39.0868535 114.825906,37.6362013 115.505909,36.2535277 C116.140579,34.9388545 117.013237,33.8168657 118.123909,32.8875277 C119.127909,32.1995277 119.296576,31.5221944 118.629909,30.8555277 C117.963242,30.1888611 117.137242,30.2088611 116.151909,30.9155277 C114.769236,32.0942003 113.681246,33.522186 112.887909,35.1995277 C112.049238,36.922203 111.629909,38.724185 111.629909,40.6055277 C111.629909,42.9175393 112.207903,45.0595179 113.363909,47.0315277 C114.497248,48.958204 116.027233,50.4881887 117.953909,51.6215277 C119.925919,52.7775335 122.067898,53.3555277 124.379909,53.3555277 C126.691921,53.3555277 128.833899,52.7775335 130.805909,51.6215277 C132.732585,50.4881887 134.26257,48.958204 135.395909,47.0315277 C136.551915,45.0595179 137.129909,42.9175393 137.129909,40.6055277 C137.129909,38.724185 136.721913,36.922203 135.905909,35.1995277 C135.089905,33.522186 133.990583,32.0942003 132.607909,30.9155277 Z M126.417909,28.7640908 L126.417909,28.7640908 C126.417909,27.9942059 125.793794,27.3700908 125.023909,27.3700908 C124.254024,27.3700908 123.629909,27.9942059 123.629909,28.7640908 L123.629909,28.7640908 L123.629909,40.1200908 C123.629909,40.8899758 124.254024,41.5140908 125.023909,41.5140908 C125.793794,41.5140908 126.417909,40.8899758 126.417909,40.1200908 L126.417909,40.1200908 L126.417909,28.7640908 Z" id="Combined-Shape"></path>
                            </g>
                        </g>
                    </g>
                </g>
            </g>
        </g>
    </g>
</svg>